<svg width="1150" height="923" viewBox="0 0 1150 923" fill="none" xmlns="http://www.w3.org/2000/svg">
<path d="M681.967 0.0206241C721.896 -0.792383 758.548 22.793 777.339 57.5392C784.534 70.8469 787.431 83.9731 790.027 98.6046C800.258 99.3198 816.429 103.273 826.532 105.863C862.278 115.027 898.24 129.45 930.177 148.193C1028.48 205.881 1111.41 309.964 1141.2 420.334C1153.78 466.973 1154.17 523.358 1129.25 565.754C1115.29 589.505 1093.23 609.387 1066.11 615.841C1042.57 621.18 1015.16 618.866 993.514 607.422C908.159 562.295 896.476 454.245 868.408 371.811C845.508 304.54 812.473 231.812 749.063 194.466C729.702 207.872 716.244 210.718 693.564 211.282C689.633 217.006 680.982 225.34 679.402 229.236C703.637 244.518 725.778 262.895 745.261 283.903C803.957 348.451 838.649 431.233 843.517 518.344C844.742 542.034 842.881 556.209 841.809 578.938C851.575 587.308 854.276 590.797 858.74 602.884C867.759 641.024 849.695 668.628 815.462 684.217C813.631 687.946 811.225 696.022 809.713 700.302C807.147 707.319 804.373 714.256 801.385 721.102C785.263 759.04 762.142 793.599 733.223 822.971C669.684 887.746 580.625 921.816 490.309 922.195C298.545 922.991 122.659 764.869 121.73 569.636C121.691 561.425 123.466 552.816 123.409 544.201L123.395 542.995C112.014 530.786 103.378 519.206 101.069 502.301C96.9079 471.833 112.406 436.059 145.794 431.708C149.641 420.19 152.657 409.881 157.203 398.461C175.024 353.686 201.462 312.795 234.945 278.431C296.196 215.566 375.409 182.983 462.379 178.314C473.377 177.723 484.628 177.811 495.751 177.77C493.564 171.74 492.766 165.71 492.112 159.442C486.87 109.225 522.5 62.7575 571.403 52.3126C577.759 50.9545 583.191 50.3409 589.803 49.8302C591.72 47.1711 593.679 44.5435 595.681 41.9493C614.565 17.8902 639.669 4.12662 669.874 0.546991C672.984 -0.0242797 678.741 0.0879708 681.967 0.0206241ZM873.906 215.802C877.978 221.873 882.712 227.383 887.022 234.008C901.656 256.808 913.932 281.039 923.662 306.325C934.444 333.598 941.094 356.191 950.352 384.478C965.39 430.445 983.049 516.457 1036.44 529.916C1042.89 531.545 1051.54 530.485 1056.91 526.542C1059.69 524.497 1060.33 523.823 1062.5 521.117C1082.08 492.217 1064.48 448.866 1052.6 419.804C1021.88 344.687 969.8 276.902 902.373 231.246C899.244 229.126 877.128 214.991 874.39 213.813L873.906 215.802ZM574.484 124.65C566.022 130.648 561.472 136.977 559.36 147.27C557.241 157.613 562.746 173.026 569.303 180.894C577.606 182.33 585.891 183.805 593.741 186.915C599.833 189.33 606.355 190.532 612.355 192.673C616.984 193.021 623.775 187.015 627.908 184.021C608.124 176.553 589.473 160.433 580.448 141.051C578.942 137.813 575.69 126.311 574.484 124.65ZM681.802 74.6398C679.727 74.799 677.492 74.72 675.808 75.8097L675.63 76.2989C681.496 83.6061 688.758 90.7396 695.481 99.1232C699.89 97.9065 702.744 97.3195 707.262 96.548L715.424 95.6876C708.652 82.1238 696.565 75.5172 681.802 74.6398Z" fill="#4C3D33"/>
<path d="M473.817 198.976C483.267 198.447 495.193 199.059 504.803 199.376C509.214 206.147 513.468 211.354 520.63 215.463C528.413 219.909 537.649 221.062 546.286 218.667C556.157 215.839 561.49 209.86 566.186 201.339C579.112 203.926 591.83 207.451 604.241 211.886C601.437 240.523 625.733 254.747 651.137 246.283C654.321 245.221 657.089 243.805 660.089 242.306C697.085 264 729.145 293.17 754.231 327.954C808.102 401.558 833.212 497.648 819.178 588.061C807.588 600.013 781.785 606.405 765.424 609.118C693.472 621.058 617.914 616.986 545.735 609.032C464.746 597.851 387.524 582.029 310.887 551.69C272.944 536.664 178.495 494.825 161.319 455.355C173.087 400.331 205.63 340.667 243.92 299.653C305.772 233.398 384.24 202.366 473.817 198.976Z" fill="#FEE2A2"/>
<path d="M374.697 253.395C405.928 249.766 410.746 277.95 394.391 298.7C380.898 315.819 361.309 329.891 339.539 333.351C306.577 335.07 302.52 309.732 319.049 287.072C331.465 270.053 353.671 256.468 374.697 253.395Z" fill="#FEF8EB"/>
<path d="M295.392 458.461C315.334 457.441 336.352 463.804 342.427 485.206C344.758 493.16 343.655 501.726 339.384 508.828C333.547 518.454 324.695 522.642 314.271 524.981C294.311 527.877 272.759 519.14 266.871 498.419C264.606 490.569 265.657 482.126 269.781 475.072C275.841 464.809 284.566 461.101 295.392 458.461Z" fill="#FDAAA6"/>
<path d="M296.507 480.185C311.683 479.732 298.476 495.241 294.111 499.852C280.027 500.617 293.123 484.434 296.507 480.185Z" fill="#F99292"/>
<path d="M315.492 484.44C328.155 486.075 316.111 500.091 312.042 504.512C298.323 503.734 310.644 488.285 315.492 484.44Z" fill="#F99292"/>
<path d="M634.115 510.5C653.66 508.32 675.624 517.523 680.4 538.213C682.273 546.203 680.755 554.617 676.205 561.45C669.831 570.898 660.812 574.737 650.139 576.96C596.397 580.456 585.921 520.101 634.115 510.5Z" fill="#FDAAA6"/>
<path d="M634.758 531.71C648.621 532.965 636.185 547.906 631.434 552.271C618.006 551.512 630.785 535.88 634.758 531.71Z" fill="#F99292"/>
<path d="M652.779 535.911C665.496 537.325 653.832 552.657 649.27 556.356C636.203 554.268 647.721 540.178 652.779 535.911Z" fill="#F99292"/>
<path d="M370.995 425.996C386.918 424.03 401.458 435.244 403.603 451.144C405.748 467.045 394.698 481.709 378.823 484.036C368.394 485.561 357.948 481.366 351.474 473.045C344.999 464.729 343.494 453.573 347.534 443.837C351.573 434.101 360.533 427.287 370.995 425.996Z" fill="#4C3D33"/>
<path d="M585.229 459.557C601.069 456.974 615.997 467.749 618.526 483.595C621.061 499.448 610.236 514.333 594.383 516.819C578.598 519.287 563.786 508.522 561.27 492.749C558.747 476.97 569.462 462.129 585.229 459.557Z" fill="#4C3D33"/>
<path d="M445.345 474.895C457.842 476.242 453.476 483.485 452.105 491.776C450.971 496.68 456.997 501.426 461.462 501.095C468.553 500.373 470.982 489.737 478.348 490.018C485.802 489.718 484.494 501.42 488.19 504.028C504.266 515.356 502.254 494.035 508.487 487.055C511.502 483.681 516.961 487.79 518.91 490.257C521.504 493.539 520.486 499.356 519.948 503.41C513.796 525.502 489.648 529.861 474.518 513.347C466.975 517.413 459.506 518.668 451.305 515.454C445.088 513.072 440.099 508.271 437.473 502.154C433.594 492.921 434.675 478.979 445.345 474.895Z" fill="#4C3D33"/>
<path d="M284.218 340.249C306.357 338.57 303.765 367.857 280.776 373.719C257.198 374.55 261.812 345.552 284.218 340.249Z" fill="#FEF8EB"/>
<path d="M143.748 560.237C151.197 565.619 159.346 571.4 167.015 576.396C323.162 678.204 609.305 730.801 790.737 691.669C745.983 808.692 659.465 879.64 534.946 898.162C515.613 900.722 481.084 903.446 461.936 899.411C447.996 896.478 433.292 880.467 426.645 868.025C414.994 846.214 412.642 821.734 419.621 797.91C458.298 789.111 471.444 743.427 442.869 717.569C433.978 709.493 422.207 705.341 410.218 706.058C373.193 708.152 349.293 748.625 372.345 780.134C375.443 784.371 379.124 787.464 383.061 790.917C374.553 826.296 378.02 859.495 400.427 888.812C255.992 850.072 137.85 713.332 143.748 560.237Z" fill="#FEE2A2"/>
<path d="M728.41 114.469C750.104 112.073 782.563 117.217 803.589 121.803C875.988 137.875 942.595 173.502 996.147 224.806C1061.38 286.268 1124.49 385.513 1128.62 478.127C1129.6 510.751 1121.01 548.053 1097.99 572.196C1069.15 602.431 1022.77 603.013 989.436 579.947C934.88 542.199 919.137 468.183 901.399 408.303C878.223 330.075 855.188 262.379 795.072 205.262C784.008 195.168 776.397 189.469 764.108 181.14L767.849 176.789C778.025 178.295 823.232 189.345 829.796 195.14C886.789 245.793 908.697 322.959 931.304 393.315C948.369 446.419 964.044 519.966 1019.55 546.136C1036.94 554.335 1060.58 553.263 1074.39 538.733C1102.72 508.926 1090.4 461.711 1077.96 427.489C1056.01 367.342 1021.51 312.547 976.78 266.735C905.373 194.505 813.809 152.519 711.695 151.868C711.278 138.026 709.221 129.723 705.008 116.948C711.933 115.38 721.21 114.894 728.41 114.469Z" fill="#FEF8EB"/>
<path d="M140.087 453.933C140.593 454.213 140.974 454.382 141.297 455.019C141.89 456.193 142.702 462.911 144.051 465.999C148.896 477.099 157.716 486.436 166.64 494.409C192.551 517.566 224.433 535.029 255.59 549.981C386.299 612.724 566.217 644.233 711.162 635.735C747.38 633.616 809.835 628.724 835.196 600.147C846.04 616.606 839.789 638.098 827.947 652.163C811.892 667.305 786.702 672.608 765.259 675.761C662.037 690.94 552.642 682.717 450.555 662.002C355.458 642.703 258.232 609.632 176.154 557.519C159.202 545.983 139.997 533.278 128.226 516.298C114.782 496.901 119.872 466.704 140.087 453.933Z" fill="#FEE2A2"/>
<path d="M678.795 22.0038C707.353 20.5459 735.611 34.1985 752.272 57.3216C761.071 69.5438 765.149 80.8041 768.302 95.3169C756.932 94.0127 748.647 93.9974 737.252 93.9864C732.77 80.2334 723.304 68.6566 710.715 61.5306C696.907 53.7169 680.522 51.8261 665.294 56.2898C647.647 61.3824 636.203 71.9918 627.588 87.8046C618.949 107.423 619.163 127.146 638.524 140.3C642.553 150.659 642.608 155.288 640.049 166.001C630.423 163 622.292 159.234 614.577 152.533C602.417 141.862 595.038 126.764 594.095 110.613C591.315 68.6639 623.743 30.6441 664.523 23.5989C669.433 22.7502 673.817 22.3247 678.795 22.0038Z" fill="#FEF8EB"/>
<path d="M654.193 87.0251C657.114 88.5259 661.461 92.1501 663.971 94.3489C690.337 117.456 697.422 156.186 683.088 187.817C675.281 205.032 659.722 221.582 641.414 227.382C624.992 231.431 618.802 214.155 629.584 207.879C666.078 186.638 675.189 142.589 643.141 112.883C643.404 101.563 646.937 95.1596 654.193 87.0251Z" fill="#FEE2A2"/>
<path d="M575.616 72.7185C577.3 72.3872 576.547 72.2091 577.955 72.931C574.814 84.2708 573.644 91.136 572.609 102.537C545.35 113.962 532.703 142.415 541.094 170.581C542.313 175.15 547.358 181.564 547.903 186.073C549.44 198.793 538.136 201.886 528.853 195.888C521.23 188.921 516.412 177.254 514.077 167.399C509.509 147.362 513.074 126.33 523.991 108.918C535.746 90.0345 554.1 77.7688 575.616 72.7185Z" fill="#FEE2A2"/>
<path d="M710.145 170.987C720.059 170.691 732.831 171.725 742.622 173.126C738.042 176.728 735.066 178.972 730.149 182.038C720.714 186.958 715.325 188.468 704.953 190.513C707.121 184.127 708.853 177.605 710.145 170.987Z" fill="#FEF8EB"/>
<path d="M67.2755 284.014C98.513 284.573 97.8749 322.189 87.6592 343.214C71.5313 376.405 67.3804 381.765 32.4005 365.413C19.4282 359.225 6.532 348.318 1.68561 334.367C-3.14953 320.39 2.48409 303.703 17.7374 299.648C27.7295 296.992 34.2136 299.1 42.8243 303.718C48.3099 291.814 54.0142 286.335 67.2755 284.014ZM67.1944 299.138C61.5622 301.451 59.5789 302.967 56.8653 308.641C54.5804 313.308 54.9126 321.079 49.5147 323.443C48.2551 323.995 45.3139 324.384 43.9981 323.414C36.1104 317.597 24.0463 306.129 16.0049 319.354C10.8196 327.882 22.1985 340.465 29.5889 346.045C40.2638 352.93 48.0463 356.01 60.5225 358.782C70.6769 348.023 79.1804 328.627 79.1436 313.552C79.1239 305.642 75.6655 299.694 67.1944 299.138Z" fill="#FDAAA6"/>
<path d="M136.66 109.982C148.186 111.415 146.21 121.943 150.304 130.933C156.209 143.9 164.137 152.207 177.562 157.441C182.121 159.219 196.094 160.455 197.825 165.675C201.212 175.887 186.994 178.596 180.78 181.81C176.964 183.825 173.416 186.309 170.217 189.204C157.719 200.633 157.634 215.106 154.355 229.863C153.85 232.132 150.162 233.565 148.024 234.236C136.789 232.625 138.797 224.251 134.982 215.296C129.16 201.634 119.666 191.842 105.089 187.728C99.8037 186.236 88.8964 185.757 86.8879 178.986C85.193 169.293 98.2683 167.161 104.775 163.765C108.613 161.724 112.14 159.147 115.25 156.109C123.44 148.075 127.884 135.98 128.847 124.66C129.445 117.637 129.303 112.481 136.66 109.982ZM140.345 150.006C134.485 161.089 130.223 166.944 120.19 174.561C126.947 178.806 130.992 181.598 136.641 187.297C138.437 189.11 143.459 195.362 144.87 195.996C151.637 183.77 154.28 179.851 165.214 171.033C158.139 167.203 155.316 165.19 149.48 159.595C147.398 157.6 141.901 150.832 140.345 150.006Z" fill="#FEE2A2"/>
<path d="M934.653 663.986C946.819 664.948 941.572 681.695 948.418 691.693C952.796 701.784 967.577 703.67 973.308 710.491C980.741 719.339 954.792 722.816 949.061 727.035C937.935 735.216 938.945 749.586 931.604 754.473C921.354 755.152 922.45 746.745 921.115 738.92C919.303 728.284 912.426 719.902 902.482 715.622C886.605 708.783 888.424 701.153 904.595 698.092C917.833 695.587 925.426 684.591 928.781 672.326C929.975 667.936 930.765 666.368 934.653 663.986ZM933.753 694.455C928.126 701.539 925.584 703.431 917.906 708.299C924.25 713.663 926.577 717.018 930.937 724.09C931.475 724.965 931.31 724.709 932.18 725.389C937.194 718.506 940.599 715.537 948.081 711.422C939.264 703.915 938.076 698.551 933.753 694.455Z" fill="#C1B2D3"/>
<path d="M849.457 780.49C858.146 779.939 888.957 798.589 897.413 804.327C902.66 807.884 897.394 814.362 893.518 817.099C884.811 817.234 853.761 798.822 845.575 792.656C841.326 789.46 845.667 783.153 849.457 780.49Z" fill="#FEE2A2"/>
<path d="M822.313 816.463C825.283 816.248 828.124 816.499 830.427 818.673C838.154 825.972 845.348 833.901 852.849 841.438C855.886 844.831 859.823 847.984 862.285 851.835C865.603 857.034 862.536 860.781 858.348 863.518C856.988 863.622 855.598 863.751 854.245 863.536C849.451 862.802 822.215 833.932 818.738 828.647C817.286 826.443 816.362 824.673 817.029 821.955C817.672 819.322 820.195 817.803 822.313 816.463Z" fill="#FEE2A2"/>
<path d="M791.49 844.616C804.306 845.969 806.473 867.431 812.333 877.466C815.339 882.61 811.947 886.486 807.018 888.898C794.778 888.696 793.321 869.219 787.798 859.942C783.885 853.384 784.773 848.749 791.49 844.616Z" fill="#FEE2A2"/>
</svg>
